<svg xmlns="http://www.w3.org/2000/svg" width="800" height="500" viewBox="0 0 800 500">
  <defs>
    <linearGradient id="sky" x1="0" y1="0" x2="0" y2="1">
      <stop offset="0%" stop-color="#08182a"/>
      <stop offset="70%" stop-color="#0f4070"/>
      <stop offset="100%" stop-color="#0f4070"/>
    </linearGradient>
    <linearGradient id="bld" x1="0" y1="0" x2="0" y2="1">
      <stop offset="0%" stop-color="#ccd8e8"/>
      <stop offset="100%" stop-color="#aabac8"/>
    </linearGradient>
    <linearGradient id="gnd" x1="0" y1="0" x2="0" y2="1">
      <stop offset="0%" stop-color="#101e2e"/>
      <stop offset="100%" stop-color="#081018"/>
    </linearGradient>
    <filter id="shadow">
      <feDropShadow dx="0" dy="4" stdDeviation="8" flood-color="rgba(0,0,0,0.4)"/>
    </filter>
  </defs>

  <rect width="800" height="500" fill="url(#sky)"/>
  <circle cx="30" cy="15" r="1" fill="white" opacity="0.4"/><circle cx="74" cy="27" r="1" fill="white" opacity="0.6000000000000001"/><circle cx="118" cy="39" r="1" fill="white" opacity="0.8"/><circle cx="162" cy="51" r="1" fill="white" opacity="0.4"/><circle cx="206" cy="63" r="1" fill="white" opacity="0.6000000000000001"/><circle cx="250" cy="15" r="1" fill="white" opacity="0.8"/><circle cx="294" cy="27" r="1" fill="white" opacity="0.4"/><circle cx="338" cy="39" r="1" fill="white" opacity="0.6000000000000001"/><circle cx="382" cy="51" r="1" fill="white" opacity="0.8"/><circle cx="426" cy="63" r="1" fill="white" opacity="0.4"/><circle cx="470" cy="15" r="1" fill="white" opacity="0.6000000000000001"/><circle cx="514" cy="27" r="1" fill="white" opacity="0.8"/><circle cx="558" cy="39" r="1" fill="white" opacity="0.4"/><circle cx="602" cy="51" r="1" fill="white" opacity="0.6000000000000001"/><circle cx="646" cy="63" r="1" fill="white" opacity="0.8"/><circle cx="690" cy="15" r="1" fill="white" opacity="0.4"/><circle cx="734" cy="27" r="1" fill="white" opacity="0.6000000000000001"/><circle cx="778" cy="39" r="1" fill="white" opacity="0.8"/>

  <rect x="0" y="380" width="800" height="120" fill="url(#gnd)"/>

  <rect x="100" y="160" width="580" height="220" fill="url(#bld)" filter="url(#shadow)"/>
  <rect x="100" y="160" width="48" height="220" fill="#0ea5e9" opacity="0.75"/>
  <rect x="674" y="160" width="6" height="220" fill="#0369a1" opacity="0.6"/>

  <rect x="130" y="180" width="34" height="22" fill="#7dd3fc" rx="2" opacity="0.85"/><rect x="204.28571428571428" y="180" width="34" height="22" fill="#7dd3fc" rx="2" opacity="0.85"/><rect x="278.57142857142856" y="180" width="34" height="22" fill="#7dd3fc" rx="2" opacity="0.85"/><rect x="352.8571428571429" y="180" width="34" height="22" fill="#7dd3fc" rx="2" opacity="0.85"/><rect x="427.14285714285717" y="180" width="34" height="22" fill="#7dd3fc" rx="2" opacity="0.85"/><rect x="501.42857142857144" y="180" width="34" height="22" fill="#7dd3fc" rx="2" opacity="0.85"/><rect x="575.7142857142858" y="180" width="34" height="22" fill="#7dd3fc" rx="2" opacity="0.85"/><rect x="130" y="210" width="34" height="22" fill="#7dd3fc" rx="2" opacity="0.85"/><rect x="204.28571428571428" y="210" width="34" height="22" fill="#7dd3fc" rx="2" opacity="0.85"/><rect x="278.57142857142856" y="210" width="34" height="22" fill="#7dd3fc" rx="2" opacity="0.85"/><rect x="352.8571428571429" y="210" width="34" height="22" fill="#7dd3fc" rx="2" opacity="0.85"/><rect x="427.14285714285717" y="210" width="34" height="22" fill="#7dd3fc" rx="2" opacity="0.85"/><rect x="501.42857142857144" y="210" width="34" height="22" fill="#7dd3fc" rx="2" opacity="0.85"/><rect x="575.7142857142858" y="210" width="34" height="22" fill="#7dd3fc" rx="2" opacity="0.85"/><rect x="130" y="240" width="34" height="22" fill="#7dd3fc" rx="2" opacity="0.85"/><rect x="204.28571428571428" y="240" width="34" height="22" fill="#7dd3fc" rx="2" opacity="0.85"/><rect x="278.57142857142856" y="240" width="34" height="22" fill="#7dd3fc" rx="2" opacity="0.85"/><rect x="352.8571428571429" y="240" width="34" height="22" fill="#7dd3fc" rx="2" opacity="0.85"/><rect x="427.14285714285717" y="240" width="34" height="22" fill="#7dd3fc" rx="2" opacity="0.85"/><rect x="501.42857142857144" y="240" width="34" height="22" fill="#7dd3fc" rx="2" opacity="0.85"/><rect x="575.7142857142858" y="240" width="34" height="22" fill="#7dd3fc" rx="2" opacity="0.85"/><rect x="130" y="270" width="34" height="22" fill="#7dd3fc" rx="2" opacity="0.85"/><rect x="204.28571428571428" y="270" width="34" height="22" fill="#7dd3fc" rx="2" opacity="0.85"/><rect x="278.57142857142856" y="270" width="34" height="22" fill="#7dd3fc" rx="2" opacity="0.85"/><rect x="352.8571428571429" y="270" width="34" height="22" fill="#7dd3fc" rx="2" opacity="0.85"/><rect x="427.14285714285717" y="270" width="34" height="22" fill="#7dd3fc" rx="2" opacity="0.85"/><rect x="501.42857142857144" y="270" width="34" height="22" fill="#7dd3fc" rx="2" opacity="0.85"/><rect x="575.7142857142858" y="270" width="34" height="22" fill="#7dd3fc" rx="2" opacity="0.85"/><rect x="130" y="300" width="34" height="22" fill="#7dd3fc" rx="2" opacity="0.85"/><rect x="204.28571428571428" y="300" width="34" height="22" fill="#7dd3fc" rx="2" opacity="0.85"/><rect x="278.57142857142856" y="300" width="34" height="22" fill="#7dd3fc" rx="2" opacity="0.85"/><rect x="352.8571428571429" y="300" width="34" height="22" fill="#7dd3fc" rx="2" opacity="0.85"/><rect x="427.14285714285717" y="300" width="34" height="22" fill="#7dd3fc" rx="2" opacity="0.85"/><rect x="501.42857142857144" y="300" width="34" height="22" fill="#7dd3fc" rx="2" opacity="0.85"/><rect x="575.7142857142858" y="300" width="34" height="22" fill="#7dd3fc" rx="2" opacity="0.85"/><rect x="130" y="330" width="34" height="22" fill="#7dd3fc" rx="2" opacity="0.85"/><rect x="204.28571428571428" y="330" width="34" height="22" fill="#7dd3fc" rx="2" opacity="0.85"/><rect x="278.57142857142856" y="330" width="34" height="22" fill="#7dd3fc" rx="2" opacity="0.85"/><rect x="352.8571428571429" y="330" width="34" height="22" fill="#7dd3fc" rx="2" opacity="0.85"/><rect x="427.14285714285717" y="330" width="34" height="22" fill="#7dd3fc" rx="2" opacity="0.85"/><rect x="501.42857142857144" y="330" width="34" height="22" fill="#7dd3fc" rx="2" opacity="0.85"/><rect x="575.7142857142858" y="330" width="34" height="22" fill="#7dd3fc" rx="2" opacity="0.85"/>

  <rect x="100" y="378" width="580" height="8" fill="#0369a1" opacity="0.5"/>
  <rect x="94" y="380" width="592" height="10" fill="rgba(0,0,0,0.35)"/>

  <ellipse cx="68" cy="370" rx="48" ry="48" fill="#081018"/>
  <circle cx="68" cy="322" r="48" fill="#1a3a1a" opacity="0.9"/>
  <rect x="64" y="360" width="8" height="20" fill="#2a1a08"/>

  <ellipse cx="738" cy="372" rx="38" ry="38" fill="#081018"/>
  <circle cx="738" cy="334" r="38" fill="#1a3a1a" opacity="0.9"/>
  <rect x="735" y="364" width="6" height="16" fill="#2a1a08"/>

  <rect x="0" y="0" width="220" height="38" fill="rgba(0,0,0,0.55)"/>
  <text x="14" y="25" fill="white" font-family="system-ui,ui-sans-serif,sans-serif" font-size="13" font-weight="700" letter-spacing="1.5">RENDER EXTERIOR</text>

  <rect x="0" y="462" width="800" height="38" fill="rgba(0,0,0,0.55)"/>
  <text x="14" y="485" fill="rgba(255,255,255,0.65)" font-family="system-ui,ui-sans-serif,sans-serif" font-size="12">Parque Empresarial Ogíjares</text>
  <rect x="788" y="462" width="12" height="38" fill="#0ea5e9" opacity="0.8"/>
</svg>