<svg xmlns="http://www.w3.org/2000/svg" width="800" height="500" viewBox="0 0 800 500">
  <defs>
    <linearGradient id="sky" x1="0" y1="0" x2="0" y2="1">
      <stop offset="0%" stop-color="#0a1f0a"/>
      <stop offset="70%" stop-color="#1a4f1a"/>
      <stop offset="100%" stop-color="#1a4f1a"/>
    </linearGradient>
    <linearGradient id="bld" x1="0" y1="0" x2="0" y2="1">
      <stop offset="0%" stop-color="#d4e8d4"/>
      <stop offset="100%" stop-color="#b4c8b4"/>
    </linearGradient>
    <linearGradient id="gnd" x1="0" y1="0" x2="0" y2="1">
      <stop offset="0%" stop-color="#102810"/>
      <stop offset="100%" stop-color="#081408"/>
    </linearGradient>
    <filter id="shadow">
      <feDropShadow dx="0" dy="4" stdDeviation="8" flood-color="rgba(0,0,0,0.4)"/>
    </filter>
  </defs>

  <rect width="800" height="500" fill="url(#sky)"/>
  <circle cx="30" cy="15" r="1" fill="white" opacity="0.4"/><circle cx="74" cy="27" r="1" fill="white" opacity="0.6000000000000001"/><circle cx="118" cy="39" r="1" fill="white" opacity="0.8"/><circle cx="162" cy="51" r="1" fill="white" opacity="0.4"/><circle cx="206" cy="63" r="1" fill="white" opacity="0.6000000000000001"/><circle cx="250" cy="15" r="1" fill="white" opacity="0.8"/><circle cx="294" cy="27" r="1" fill="white" opacity="0.4"/><circle cx="338" cy="39" r="1" fill="white" opacity="0.6000000000000001"/><circle cx="382" cy="51" r="1" fill="white" opacity="0.8"/><circle cx="426" cy="63" r="1" fill="white" opacity="0.4"/><circle cx="470" cy="15" r="1" fill="white" opacity="0.6000000000000001"/><circle cx="514" cy="27" r="1" fill="white" opacity="0.8"/><circle cx="558" cy="39" r="1" fill="white" opacity="0.4"/><circle cx="602" cy="51" r="1" fill="white" opacity="0.6000000000000001"/><circle cx="646" cy="63" r="1" fill="white" opacity="0.8"/><circle cx="690" cy="15" r="1" fill="white" opacity="0.4"/><circle cx="734" cy="27" r="1" fill="white" opacity="0.6000000000000001"/><circle cx="778" cy="39" r="1" fill="white" opacity="0.8"/>

  <rect x="0" y="360" width="800" height="140" fill="url(#gnd)"/>

  <rect x="120" y="160" width="560" height="200" fill="url(#bld)" filter="url(#shadow)"/>
  <rect x="120" y="160" width="48" height="200" fill="#10b981" opacity="0.75"/>
  <rect x="674" y="160" width="6" height="200" fill="#059669" opacity="0.6"/>

  <rect x="150" y="180" width="34" height="22" fill="#6ee7b7" rx="2" opacity="0.85"/><rect x="212.5" y="180" width="34" height="22" fill="#6ee7b7" rx="2" opacity="0.85"/><rect x="275" y="180" width="34" height="22" fill="#6ee7b7" rx="2" opacity="0.85"/><rect x="337.5" y="180" width="34" height="22" fill="#6ee7b7" rx="2" opacity="0.85"/><rect x="400" y="180" width="34" height="22" fill="#6ee7b7" rx="2" opacity="0.85"/><rect x="462.5" y="180" width="34" height="22" fill="#6ee7b7" rx="2" opacity="0.85"/><rect x="525" y="180" width="34" height="22" fill="#6ee7b7" rx="2" opacity="0.85"/><rect x="587.5" y="180" width="34" height="22" fill="#6ee7b7" rx="2" opacity="0.85"/><rect x="150" y="212" width="34" height="22" fill="#6ee7b7" rx="2" opacity="0.85"/><rect x="212.5" y="212" width="34" height="22" fill="#6ee7b7" rx="2" opacity="0.85"/><rect x="275" y="212" width="34" height="22" fill="#6ee7b7" rx="2" opacity="0.85"/><rect x="337.5" y="212" width="34" height="22" fill="#6ee7b7" rx="2" opacity="0.85"/><rect x="400" y="212" width="34" height="22" fill="#6ee7b7" rx="2" opacity="0.85"/><rect x="462.5" y="212" width="34" height="22" fill="#6ee7b7" rx="2" opacity="0.85"/><rect x="525" y="212" width="34" height="22" fill="#6ee7b7" rx="2" opacity="0.85"/><rect x="587.5" y="212" width="34" height="22" fill="#6ee7b7" rx="2" opacity="0.85"/><rect x="150" y="244" width="34" height="22" fill="#6ee7b7" rx="2" opacity="0.85"/><rect x="212.5" y="244" width="34" height="22" fill="#6ee7b7" rx="2" opacity="0.85"/><rect x="275" y="244" width="34" height="22" fill="#6ee7b7" rx="2" opacity="0.85"/><rect x="337.5" y="244" width="34" height="22" fill="#6ee7b7" rx="2" opacity="0.85"/><rect x="400" y="244" width="34" height="22" fill="#6ee7b7" rx="2" opacity="0.85"/><rect x="462.5" y="244" width="34" height="22" fill="#6ee7b7" rx="2" opacity="0.85"/><rect x="525" y="244" width="34" height="22" fill="#6ee7b7" rx="2" opacity="0.85"/><rect x="587.5" y="244" width="34" height="22" fill="#6ee7b7" rx="2" opacity="0.85"/><rect x="150" y="276" width="34" height="22" fill="#6ee7b7" rx="2" opacity="0.85"/><rect x="212.5" y="276" width="34" height="22" fill="#6ee7b7" rx="2" opacity="0.85"/><rect x="275" y="276" width="34" height="22" fill="#6ee7b7" rx="2" opacity="0.85"/><rect x="337.5" y="276" width="34" height="22" fill="#6ee7b7" rx="2" opacity="0.85"/><rect x="400" y="276" width="34" height="22" fill="#6ee7b7" rx="2" opacity="0.85"/><rect x="462.5" y="276" width="34" height="22" fill="#6ee7b7" rx="2" opacity="0.85"/><rect x="525" y="276" width="34" height="22" fill="#6ee7b7" rx="2" opacity="0.85"/><rect x="587.5" y="276" width="34" height="22" fill="#6ee7b7" rx="2" opacity="0.85"/><rect x="150" y="308" width="34" height="22" fill="#6ee7b7" rx="2" opacity="0.85"/><rect x="212.5" y="308" width="34" height="22" fill="#6ee7b7" rx="2" opacity="0.85"/><rect x="275" y="308" width="34" height="22" fill="#6ee7b7" rx="2" opacity="0.85"/><rect x="337.5" y="308" width="34" height="22" fill="#6ee7b7" rx="2" opacity="0.85"/><rect x="400" y="308" width="34" height="22" fill="#6ee7b7" rx="2" opacity="0.85"/><rect x="462.5" y="308" width="34" height="22" fill="#6ee7b7" rx="2" opacity="0.85"/><rect x="525" y="308" width="34" height="22" fill="#6ee7b7" rx="2" opacity="0.85"/><rect x="587.5" y="308" width="34" height="22" fill="#6ee7b7" rx="2" opacity="0.85"/>

  <rect x="120" y="358" width="560" height="8" fill="#059669" opacity="0.5"/>
  <rect x="114" y="360" width="572" height="10" fill="rgba(0,0,0,0.35)"/>

  <ellipse cx="68" cy="350" rx="48" ry="48" fill="#081408"/>
  <circle cx="68" cy="302" r="48" fill="#1a3a1a" opacity="0.9"/>
  <rect x="64" y="340" width="8" height="20" fill="#2a1a08"/>

  <ellipse cx="738" cy="352" rx="38" ry="38" fill="#081408"/>
  <circle cx="738" cy="314" r="38" fill="#1a3a1a" opacity="0.9"/>
  <rect x="735" y="344" width="6" height="16" fill="#2a1a08"/>

  <rect x="0" y="0" width="220" height="38" fill="rgba(0,0,0,0.55)"/>
  <text x="14" y="25" fill="white" font-family="system-ui,ui-sans-serif,sans-serif" font-size="13" font-weight="700" letter-spacing="1.5">RENDER EXTERIOR</text>

  <rect x="0" y="462" width="800" height="38" fill="rgba(0,0,0,0.55)"/>
  <text x="14" y="485" fill="rgba(255,255,255,0.65)" font-family="system-ui,ui-sans-serif,sans-serif" font-size="12">Residencia La Zubia</text>
  <rect x="788" y="462" width="12" height="38" fill="#10b981" opacity="0.8"/>
</svg>