<svg xmlns="http://www.w3.org/2000/svg" width="800" height="500" viewBox="0 0 800 500">
  <rect width="800" height="500" fill="#f4f2ed"/>
  <line x1="0" y1="0" x2="0" y2="500" stroke="#dedad5" stroke-width="0.5"/><line x1="40" y1="0" x2="40" y2="500" stroke="#dedad5" stroke-width="0.5"/><line x1="80" y1="0" x2="80" y2="500" stroke="#dedad5" stroke-width="0.5"/><line x1="120" y1="0" x2="120" y2="500" stroke="#dedad5" stroke-width="0.5"/><line x1="160" y1="0" x2="160" y2="500" stroke="#dedad5" stroke-width="0.5"/><line x1="200" y1="0" x2="200" y2="500" stroke="#dedad5" stroke-width="0.5"/><line x1="240" y1="0" x2="240" y2="500" stroke="#dedad5" stroke-width="0.5"/><line x1="280" y1="0" x2="280" y2="500" stroke="#dedad5" stroke-width="0.5"/><line x1="320" y1="0" x2="320" y2="500" stroke="#dedad5" stroke-width="0.5"/><line x1="360" y1="0" x2="360" y2="500" stroke="#dedad5" stroke-width="0.5"/><line x1="400" y1="0" x2="400" y2="500" stroke="#dedad5" stroke-width="0.5"/><line x1="440" y1="0" x2="440" y2="500" stroke="#dedad5" stroke-width="0.5"/><line x1="480" y1="0" x2="480" y2="500" stroke="#dedad5" stroke-width="0.5"/><line x1="520" y1="0" x2="520" y2="500" stroke="#dedad5" stroke-width="0.5"/><line x1="560" y1="0" x2="560" y2="500" stroke="#dedad5" stroke-width="0.5"/><line x1="600" y1="0" x2="600" y2="500" stroke="#dedad5" stroke-width="0.5"/><line x1="640" y1="0" x2="640" y2="500" stroke="#dedad5" stroke-width="0.5"/><line x1="680" y1="0" x2="680" y2="500" stroke="#dedad5" stroke-width="0.5"/><line x1="720" y1="0" x2="720" y2="500" stroke="#dedad5" stroke-width="0.5"/><line x1="760" y1="0" x2="760" y2="500" stroke="#dedad5" stroke-width="0.5"/><line x1="0" y1="0" x2="800" y2="0" stroke="#dedad5" stroke-width="0.5"/><line x1="0" y1="40" x2="800" y2="40" stroke="#dedad5" stroke-width="0.5"/><line x1="0" y1="80" x2="800" y2="80" stroke="#dedad5" stroke-width="0.5"/><line x1="0" y1="120" x2="800" y2="120" stroke="#dedad5" stroke-width="0.5"/><line x1="0" y1="160" x2="800" y2="160" stroke="#dedad5" stroke-width="0.5"/><line x1="0" y1="200" x2="800" y2="200" stroke="#dedad5" stroke-width="0.5"/><line x1="0" y1="240" x2="800" y2="240" stroke="#dedad5" stroke-width="0.5"/><line x1="0" y1="280" x2="800" y2="280" stroke="#dedad5" stroke-width="0.5"/><line x1="0" y1="320" x2="800" y2="320" stroke="#dedad5" stroke-width="0.5"/><line x1="0" y1="360" x2="800" y2="360" stroke="#dedad5" stroke-width="0.5"/><line x1="0" y1="400" x2="800" y2="400" stroke="#dedad5" stroke-width="0.5"/><line x1="0" y1="440" x2="800" y2="440" stroke="#dedad5" stroke-width="0.5"/><line x1="0" y1="480" x2="800" y2="480" stroke="#dedad5" stroke-width="0.5"/>

  <rect x="80" y="100" width="440" height="300" fill="none" stroke="#1a1a1a" stroke-width="5"/>
     <rect x="520" y="180" width="200" height="200" fill="none" stroke="#1a1a1a" stroke-width="5"/>
     <line x1="80" y1="220" x2="520" y2="220" stroke="#1a1a1a" stroke-width="4"/>
     <line x1="240" y1="100" x2="240" y2="400" stroke="#1a1a1a" stroke-width="3"/>
     <rect x="82" y="222" width="156" height="176" fill="#eab308" opacity="0.07"/>
     <path d="M 320 220 A 60 60 0 0 1 320 100" fill="none" stroke="#777" stroke-width="1.5" stroke-dasharray="4,3"/>
     <rect x="80" y="380" width="100" height="5" fill="#eab308"/>

  <g transform="translate(730,90)">
    <circle cx="0" cy="0" r="28" fill="none" stroke="#333" stroke-width="1.5"/>
    <path d="M0,-22 L7,12 L0,5 L-7,12 Z" fill="#eab308"/>
    <path d="M0,22 L7,-12 L0,-5 L-7,-12 Z" fill="#bbb"/>
    <text x="0" y="-28" text-anchor="middle" font-family="system-ui,sans-serif" font-size="11" font-weight="700" fill="#333">N</text>
  </g>

  <rect x="80" y="440" width="260" height="1.5" fill="#555"/>
  <text x="80" y="455" font-family="system-ui,sans-serif" font-size="10" fill="#555">0    5   10   20 m</text>
  <line x1="80" y1="440" x2="80" y2="446" stroke="#555" stroke-width="1.5"/>
  <line x1="130" y1="440" x2="130" y2="444" stroke="#555" stroke-width="1"/>
  <line x1="180" y1="440" x2="180" y2="444" stroke="#555" stroke-width="1"/>
  <line x1="280" y1="440" x2="280" y2="446" stroke="#555" stroke-width="1.5"/>

  <rect x="0" y="0" width="200" height="38" fill="#eab308" opacity="0.88"/>
  <text x="14" y="25" fill="white" font-family="system-ui,ui-sans-serif,sans-serif" font-size="13" font-weight="700" letter-spacing="1.5">PLANTA BAJA</text>

  <text x="800" y="490" text-anchor="end" font-family="system-ui,sans-serif" font-size="10" fill="#999">Polígono Industrial Santa Fe  |  E 1:100</text>
</svg>