<svg xmlns="http://www.w3.org/2000/svg" width="800" height="500" viewBox="0 0 800 500">
  <defs>
    <linearGradient id="sky" x1="0" y1="0" x2="0" y2="1">
      <stop offset="0%" stop-color="#b8afa0"/>
      <stop offset="100%" stop-color="#8a8070"/>
    </linearGradient>
    <linearGradient id="concrete" x1="0" y1="0" x2="0" y2="1">
      <stop offset="0%" stop-color="#c0b8b0"/>
      <stop offset="100%" stop-color="#989088"/>
    </linearGradient>
    <linearGradient id="floor" x1="0" y1="0" x2="0" y2="1">
      <stop offset="0%" stop-color="#908880"/>
      <stop offset="100%" stop-color="#706860"/>
    </linearGradient>
    <filter id="blur2"><feGaussianBlur stdDeviation="2"/></filter>
  </defs>

  <rect width="800" height="280" fill="url(#sky)"/>
  <rect y="280" width="800" height="220" fill="url(#floor)"/>

  <rect x="60" y="40" width="50" height="400" fill="url(#concrete)" stroke="#888" stroke-width="1"/>
  <rect x="270" y="40" width="50" height="400" fill="url(#concrete)" stroke="#888" stroke-width="1"/>
  <rect x="480" y="40" width="50" height="400" fill="url(#concrete)" stroke="#888" stroke-width="1"/>
  <rect x="660" y="40" width="50" height="400" fill="url(#concrete)" stroke="#888" stroke-width="1"/>

  <rect x="40" y="120" width="690" height="28" fill="url(#concrete)" stroke="#888" stroke-width="1"/>
  <rect x="40" y="230" width="690" height="28" fill="url(#concrete)" stroke="#888" stroke-width="1"/>
  <rect x="40" y="340" width="690" height="28" fill="url(#concrete)" stroke="#888" stroke-width="1"/>

  <line x1="155" y1="40" x2="155" y2="440" stroke="#e0a030" stroke-width="3.5" opacity="0.85"/>
  <line x1="370" y1="40" x2="370" y2="440" stroke="#e0a030" stroke-width="3.5" opacity="0.85"/>
  <line x1="580" y1="40" x2="580" y2="440" stroke="#e0a030" stroke-width="3.5" opacity="0.85"/>

  <line x1="135" y1="80" x2="605" y2="80" stroke="#e0a030" stroke-width="2.5" opacity="0.85"/>
  <line x1="135" y1="190" x2="605" y2="190" stroke="#e0a030" stroke-width="2.5" opacity="0.85"/>
  <line x1="135" y1="300" x2="605" y2="300" stroke="#e0a030" stroke-width="2.5" opacity="0.85"/>

  <ellipse cx="220" cy="445" rx="80" ry="18" fill="#5a5248" opacity="0.7"/>
  <ellipse cx="580" cy="448" rx="65" ry="14" fill="#5a5248" opacity="0.6"/>
  <rect x="150" y="430" width="140" height="15" fill="#4a4640"/>
  <rect x="500" y="435" width="110" height="12" fill="#4a4640"/>

  <rect x="740" y="0" width="14" height="500" fill="#ef4444" opacity="0.7"/>
  <rect x="720" y="90" width="80" height="10" fill="#ef4444" opacity="0.7"/>
  <rect x="720" y="200" width="80" height="10" fill="#ef4444" opacity="0.5"/>
  <rect x="720" y="310" width="80" height="10" fill="#ef4444" opacity="0.5"/>

  <rect width="800" height="500" fill="rgba(165,148,128,0.12)"/>

  <rect x="0" y="0" width="200" height="38" fill="rgba(0,0,0,0.6)"/>
  <text x="14" y="25" fill="white" font-family="system-ui,ui-sans-serif,sans-serif" font-size="13" font-weight="700" letter-spacing="1.5">VISTA DE OBRA</text>

  <rect x="0" y="462" width="800" height="38" fill="rgba(0,0,0,0.55)"/>
  <text x="14" y="485" fill="rgba(255,255,255,0.65)" font-family="system-ui,ui-sans-serif,sans-serif" font-size="12">Centro Deportivo Huétor Vega</text>
  <rect x="788" y="462" width="12" height="38" fill="#ef4444" opacity="0.8"/>
</svg>