<svg xmlns="http://www.w3.org/2000/svg" width="800" height="500" viewBox="0 0 800 500">
  <defs>
    <linearGradient id="sky" x1="0" y1="0" x2="0" y2="1">
      <stop offset="0%" stop-color="#1e0a00"/>
      <stop offset="70%" stop-color="#582400"/>
      <stop offset="100%" stop-color="#582400"/>
    </linearGradient>
    <linearGradient id="bld" x1="0" y1="0" x2="0" y2="1">
      <stop offset="0%" stop-color="#f0e8e0"/>
      <stop offset="100%" stop-color="#d0c8c0"/>
    </linearGradient>
    <linearGradient id="gnd" x1="0" y1="0" x2="0" y2="1">
      <stop offset="0%" stop-color="#281400"/>
      <stop offset="100%" stop-color="#140800"/>
    </linearGradient>
    <filter id="shadow">
      <feDropShadow dx="0" dy="4" stdDeviation="8" flood-color="rgba(0,0,0,0.4)"/>
    </filter>
  </defs>

  <rect width="800" height="500" fill="url(#sky)"/>
  <circle cx="30" cy="15" r="1" fill="white" opacity="0.4"/><circle cx="74" cy="27" r="1" fill="white" opacity="0.6000000000000001"/><circle cx="118" cy="39" r="1" fill="white" opacity="0.8"/><circle cx="162" cy="51" r="1" fill="white" opacity="0.4"/><circle cx="206" cy="63" r="1" fill="white" opacity="0.6000000000000001"/><circle cx="250" cy="15" r="1" fill="white" opacity="0.8"/><circle cx="294" cy="27" r="1" fill="white" opacity="0.4"/><circle cx="338" cy="39" r="1" fill="white" opacity="0.6000000000000001"/><circle cx="382" cy="51" r="1" fill="white" opacity="0.8"/><circle cx="426" cy="63" r="1" fill="white" opacity="0.4"/><circle cx="470" cy="15" r="1" fill="white" opacity="0.6000000000000001"/><circle cx="514" cy="27" r="1" fill="white" opacity="0.8"/><circle cx="558" cy="39" r="1" fill="white" opacity="0.4"/><circle cx="602" cy="51" r="1" fill="white" opacity="0.6000000000000001"/><circle cx="646" cy="63" r="1" fill="white" opacity="0.8"/><circle cx="690" cy="15" r="1" fill="white" opacity="0.4"/><circle cx="734" cy="27" r="1" fill="white" opacity="0.6000000000000001"/><circle cx="778" cy="39" r="1" fill="white" opacity="0.8"/>

  <rect x="0" y="350" width="800" height="150" fill="url(#gnd)"/>

  <rect x="140" y="160" width="540" height="190" fill="url(#bld)" filter="url(#shadow)"/>
  <rect x="140" y="160" width="48" height="190" fill="#f97316" opacity="0.75"/>
  <rect x="674" y="160" width="6" height="190" fill="#c2410c" opacity="0.6"/>

  <rect x="170" y="180" width="34" height="22" fill="#fed7aa" rx="2" opacity="0.85"/><rect x="223.33333333333334" y="180" width="34" height="22" fill="#fed7aa" rx="2" opacity="0.85"/><rect x="276.6666666666667" y="180" width="34" height="22" fill="#fed7aa" rx="2" opacity="0.85"/><rect x="330" y="180" width="34" height="22" fill="#fed7aa" rx="2" opacity="0.85"/><rect x="383.33333333333337" y="180" width="34" height="22" fill="#fed7aa" rx="2" opacity="0.85"/><rect x="436.6666666666667" y="180" width="34" height="22" fill="#fed7aa" rx="2" opacity="0.85"/><rect x="490" y="180" width="34" height="22" fill="#fed7aa" rx="2" opacity="0.85"/><rect x="543.3333333333334" y="180" width="34" height="22" fill="#fed7aa" rx="2" opacity="0.85"/><rect x="596.6666666666667" y="180" width="34" height="22" fill="#fed7aa" rx="2" opacity="0.85"/><rect x="170" y="210" width="34" height="22" fill="#fed7aa" rx="2" opacity="0.85"/><rect x="223.33333333333334" y="210" width="34" height="22" fill="#fed7aa" rx="2" opacity="0.85"/><rect x="276.6666666666667" y="210" width="34" height="22" fill="#fed7aa" rx="2" opacity="0.85"/><rect x="330" y="210" width="34" height="22" fill="#fed7aa" rx="2" opacity="0.85"/><rect x="383.33333333333337" y="210" width="34" height="22" fill="#fed7aa" rx="2" opacity="0.85"/><rect x="436.6666666666667" y="210" width="34" height="22" fill="#fed7aa" rx="2" opacity="0.85"/><rect x="490" y="210" width="34" height="22" fill="#fed7aa" rx="2" opacity="0.85"/><rect x="543.3333333333334" y="210" width="34" height="22" fill="#fed7aa" rx="2" opacity="0.85"/><rect x="596.6666666666667" y="210" width="34" height="22" fill="#fed7aa" rx="2" opacity="0.85"/><rect x="170" y="240" width="34" height="22" fill="#fed7aa" rx="2" opacity="0.85"/><rect x="223.33333333333334" y="240" width="34" height="22" fill="#fed7aa" rx="2" opacity="0.85"/><rect x="276.6666666666667" y="240" width="34" height="22" fill="#fed7aa" rx="2" opacity="0.85"/><rect x="330" y="240" width="34" height="22" fill="#fed7aa" rx="2" opacity="0.85"/><rect x="383.33333333333337" y="240" width="34" height="22" fill="#fed7aa" rx="2" opacity="0.85"/><rect x="436.6666666666667" y="240" width="34" height="22" fill="#fed7aa" rx="2" opacity="0.85"/><rect x="490" y="240" width="34" height="22" fill="#fed7aa" rx="2" opacity="0.85"/><rect x="543.3333333333334" y="240" width="34" height="22" fill="#fed7aa" rx="2" opacity="0.85"/><rect x="596.6666666666667" y="240" width="34" height="22" fill="#fed7aa" rx="2" opacity="0.85"/><rect x="170" y="270" width="34" height="22" fill="#fed7aa" rx="2" opacity="0.85"/><rect x="223.33333333333334" y="270" width="34" height="22" fill="#fed7aa" rx="2" opacity="0.85"/><rect x="276.6666666666667" y="270" width="34" height="22" fill="#fed7aa" rx="2" opacity="0.85"/><rect x="330" y="270" width="34" height="22" fill="#fed7aa" rx="2" opacity="0.85"/><rect x="383.33333333333337" y="270" width="34" height="22" fill="#fed7aa" rx="2" opacity="0.85"/><rect x="436.6666666666667" y="270" width="34" height="22" fill="#fed7aa" rx="2" opacity="0.85"/><rect x="490" y="270" width="34" height="22" fill="#fed7aa" rx="2" opacity="0.85"/><rect x="543.3333333333334" y="270" width="34" height="22" fill="#fed7aa" rx="2" opacity="0.85"/><rect x="596.6666666666667" y="270" width="34" height="22" fill="#fed7aa" rx="2" opacity="0.85"/><rect x="170" y="300" width="34" height="22" fill="#fed7aa" rx="2" opacity="0.85"/><rect x="223.33333333333334" y="300" width="34" height="22" fill="#fed7aa" rx="2" opacity="0.85"/><rect x="276.6666666666667" y="300" width="34" height="22" fill="#fed7aa" rx="2" opacity="0.85"/><rect x="330" y="300" width="34" height="22" fill="#fed7aa" rx="2" opacity="0.85"/><rect x="383.33333333333337" y="300" width="34" height="22" fill="#fed7aa" rx="2" opacity="0.85"/><rect x="436.6666666666667" y="300" width="34" height="22" fill="#fed7aa" rx="2" opacity="0.85"/><rect x="490" y="300" width="34" height="22" fill="#fed7aa" rx="2" opacity="0.85"/><rect x="543.3333333333334" y="300" width="34" height="22" fill="#fed7aa" rx="2" opacity="0.85"/><rect x="596.6666666666667" y="300" width="34" height="22" fill="#fed7aa" rx="2" opacity="0.85"/>

  <rect x="140" y="348" width="540" height="8" fill="#c2410c" opacity="0.5"/>
  <rect x="134" y="350" width="552" height="10" fill="rgba(0,0,0,0.35)"/>

  <ellipse cx="68" cy="340" rx="48" ry="48" fill="#140800"/>
  <circle cx="68" cy="292" r="48" fill="#1a3a1a" opacity="0.9"/>
  <rect x="64" y="330" width="8" height="20" fill="#2a1a08"/>

  <ellipse cx="738" cy="342" rx="38" ry="38" fill="#140800"/>
  <circle cx="738" cy="304" r="38" fill="#1a3a1a" opacity="0.9"/>
  <rect x="735" y="334" width="6" height="16" fill="#2a1a08"/>

  <rect x="0" y="0" width="220" height="38" fill="rgba(0,0,0,0.55)"/>
  <text x="14" y="25" fill="white" font-family="system-ui,ui-sans-serif,sans-serif" font-size="13" font-weight="700" letter-spacing="1.5">RENDER EXTERIOR</text>

  <rect x="0" y="462" width="800" height="38" fill="rgba(0,0,0,0.55)"/>
  <text x="14" y="485" fill="rgba(255,255,255,0.65)" font-family="system-ui,ui-sans-serif,sans-serif" font-size="12">Vivienda Unifamiliar Churriana</text>
  <rect x="788" y="462" width="12" height="38" fill="#f97316" opacity="0.8"/>
</svg>