<svg xmlns="http://www.w3.org/2000/svg" width="800" height="500" viewBox="0 0 800 500">
  <rect width="800" height="500" fill="#f8f6f2"/>

  <line x1="0" y1="0" x2="0" y2="500" stroke="#e8e4de" stroke-width="0.5"/><line x1="40" y1="0" x2="40" y2="500" stroke="#e8e4de" stroke-width="0.5"/><line x1="80" y1="0" x2="80" y2="500" stroke="#e8e4de" stroke-width="0.5"/><line x1="120" y1="0" x2="120" y2="500" stroke="#e8e4de" stroke-width="0.5"/><line x1="160" y1="0" x2="160" y2="500" stroke="#e8e4de" stroke-width="0.5"/><line x1="200" y1="0" x2="200" y2="500" stroke="#e8e4de" stroke-width="0.5"/><line x1="240" y1="0" x2="240" y2="500" stroke="#e8e4de" stroke-width="0.5"/><line x1="280" y1="0" x2="280" y2="500" stroke="#e8e4de" stroke-width="0.5"/><line x1="320" y1="0" x2="320" y2="500" stroke="#e8e4de" stroke-width="0.5"/><line x1="360" y1="0" x2="360" y2="500" stroke="#e8e4de" stroke-width="0.5"/><line x1="400" y1="0" x2="400" y2="500" stroke="#e8e4de" stroke-width="0.5"/><line x1="440" y1="0" x2="440" y2="500" stroke="#e8e4de" stroke-width="0.5"/><line x1="480" y1="0" x2="480" y2="500" stroke="#e8e4de" stroke-width="0.5"/><line x1="520" y1="0" x2="520" y2="500" stroke="#e8e4de" stroke-width="0.5"/><line x1="560" y1="0" x2="560" y2="500" stroke="#e8e4de" stroke-width="0.5"/><line x1="600" y1="0" x2="600" y2="500" stroke="#e8e4de" stroke-width="0.5"/><line x1="640" y1="0" x2="640" y2="500" stroke="#e8e4de" stroke-width="0.5"/><line x1="680" y1="0" x2="680" y2="500" stroke="#e8e4de" stroke-width="0.5"/><line x1="720" y1="0" x2="720" y2="500" stroke="#e8e4de" stroke-width="0.5"/><line x1="760" y1="0" x2="760" y2="500" stroke="#e8e4de" stroke-width="0.5"/>
  <line x1="0" y1="0" x2="800" y2="0" stroke="#e8e4de" stroke-width="0.5"/><line x1="0" y1="40" x2="800" y2="40" stroke="#e8e4de" stroke-width="0.5"/><line x1="0" y1="80" x2="800" y2="80" stroke="#e8e4de" stroke-width="0.5"/><line x1="0" y1="120" x2="800" y2="120" stroke="#e8e4de" stroke-width="0.5"/><line x1="0" y1="160" x2="800" y2="160" stroke="#e8e4de" stroke-width="0.5"/><line x1="0" y1="200" x2="800" y2="200" stroke="#e8e4de" stroke-width="0.5"/><line x1="0" y1="240" x2="800" y2="240" stroke="#e8e4de" stroke-width="0.5"/><line x1="0" y1="280" x2="800" y2="280" stroke="#e8e4de" stroke-width="0.5"/><line x1="0" y1="320" x2="800" y2="320" stroke="#e8e4de" stroke-width="0.5"/><line x1="0" y1="360" x2="800" y2="360" stroke="#e8e4de" stroke-width="0.5"/><line x1="0" y1="400" x2="800" y2="400" stroke="#e8e4de" stroke-width="0.5"/><line x1="0" y1="440" x2="800" y2="440" stroke="#e8e4de" stroke-width="0.5"/><line x1="0" y1="480" x2="800" y2="480" stroke="#e8e4de" stroke-width="0.5"/>

  <line x1="60" y1="380" x2="740" y2="380" stroke="#333" stroke-width="2"/>

  <rect x="100" y="140" width="600" height="240" fill="#e0dcd6" stroke="#1a1a1a" stroke-width="3"/>
  <rect x="100" y="140" width="60" height="240" fill="#3b82f6" opacity="0.7"/>
  <rect x="640" y="140" width="60" height="240" fill="#1d4ed8" opacity="0.5"/>

  <rect x="185" y="165" width="52" height="36" fill="#b8d4f0" rx="2" stroke="#1d4ed8" stroke-width="1" opacity="0.9"/><rect x="185" y="217" width="52" height="36" fill="#b8d4f0" rx="2" stroke="#1d4ed8" stroke-width="1" opacity="0.9"/><rect x="185" y="269" width="52" height="36" fill="#b8d4f0" rx="2" stroke="#1d4ed8" stroke-width="1" opacity="0.9"/><rect x="185" y="321" width="52" height="36" fill="#b8d4f0" rx="2" stroke="#1d4ed8" stroke-width="1" opacity="0.9"/><rect x="275" y="165" width="52" height="36" fill="#b8d4f0" rx="2" stroke="#1d4ed8" stroke-width="1" opacity="0.9"/><rect x="275" y="217" width="52" height="36" fill="#b8d4f0" rx="2" stroke="#1d4ed8" stroke-width="1" opacity="0.9"/><rect x="275" y="269" width="52" height="36" fill="#b8d4f0" rx="2" stroke="#1d4ed8" stroke-width="1" opacity="0.9"/><rect x="275" y="321" width="52" height="36" fill="#b8d4f0" rx="2" stroke="#1d4ed8" stroke-width="1" opacity="0.9"/><rect x="365" y="165" width="52" height="36" fill="#b8d4f0" rx="2" stroke="#1d4ed8" stroke-width="1" opacity="0.9"/><rect x="365" y="217" width="52" height="36" fill="#b8d4f0" rx="2" stroke="#1d4ed8" stroke-width="1" opacity="0.9"/><rect x="365" y="269" width="52" height="36" fill="#b8d4f0" rx="2" stroke="#1d4ed8" stroke-width="1" opacity="0.9"/><rect x="365" y="321" width="52" height="36" fill="#b8d4f0" rx="2" stroke="#1d4ed8" stroke-width="1" opacity="0.9"/><rect x="455" y="165" width="52" height="36" fill="#b8d4f0" rx="2" stroke="#1d4ed8" stroke-width="1" opacity="0.9"/><rect x="455" y="217" width="52" height="36" fill="#b8d4f0" rx="2" stroke="#1d4ed8" stroke-width="1" opacity="0.9"/><rect x="455" y="269" width="52" height="36" fill="#b8d4f0" rx="2" stroke="#1d4ed8" stroke-width="1" opacity="0.9"/><rect x="455" y="321" width="52" height="36" fill="#b8d4f0" rx="2" stroke="#1d4ed8" stroke-width="1" opacity="0.9"/><rect x="545" y="165" width="52" height="36" fill="#b8d4f0" rx="2" stroke="#1d4ed8" stroke-width="1" opacity="0.9"/><rect x="545" y="217" width="52" height="36" fill="#b8d4f0" rx="2" stroke="#1d4ed8" stroke-width="1" opacity="0.9"/><rect x="545" y="269" width="52" height="36" fill="#b8d4f0" rx="2" stroke="#1d4ed8" stroke-width="1" opacity="0.9"/><rect x="545" y="321" width="52" height="36" fill="#b8d4f0" rx="2" stroke="#1d4ed8" stroke-width="1" opacity="0.9"/>

  <rect x="320" y="310" width="80" height="70" fill="#c8c0b8" stroke="#333" stroke-width="2"/>
  <line x1="360" y1="310" x2="360" y2="380" stroke="#555" stroke-width="1"/>

  <line x1="40" y1="140" x2="60" y2="140" stroke="#555" stroke-width="1.5"/>
  <line x1="40" y1="380" x2="60" y2="380" stroke="#555" stroke-width="1.5"/>
  <line x1="50" y1="140" x2="50" y2="380" stroke="#555" stroke-width="1.5"/>
  <text x="10" y="265" font-family="system-ui,sans-serif" font-size="10" fill="#555" transform="rotate(-90,10,265)">7.50 m</text>

  <line x1="100" y1="400" x2="100" y2="420" stroke="#555" stroke-width="1.5"/>
  <line x1="700" y1="400" x2="700" y2="420" stroke="#555" stroke-width="1.5"/>
  <line x1="100" y1="410" x2="700" y2="410" stroke="#555" stroke-width="1.5"/>
  <text x="370" y="435" text-anchor="middle" font-family="system-ui,sans-serif" font-size="10" fill="#555">25.00 m</text>

  <rect x="0" y="0" width="220" height="38" fill="#3b82f6" opacity="0.88"/>
  <text x="14" y="25" fill="white" font-family="system-ui,ui-sans-serif,sans-serif" font-size="13" font-weight="700" letter-spacing="1.5">ALZADO PRINCIPAL</text>

  <text x="790" y="490" text-anchor="end" font-family="system-ui,sans-serif" font-size="10" fill="#999">Hospital de Día Armilla  |  E 1:100</text>
</svg>